<svg width="18" height="17" viewBox="0 0 18 17" fill="none" xmlns="http://www.w3.org/2000/svg">
<path d="M3.375 3.1875C3.375 2.62391 3.61205 2.08341 4.03401 1.6849C4.45597 1.28638 5.02826 1.0625 5.625 1.0625C6.22174 1.0625 6.79403 1.28638 7.21599 1.6849C7.63795 2.08341 7.875 2.62391 7.875 3.1875C7.875 3.75109 7.63795 4.29159 7.21599 4.6901C6.79403 5.08862 6.22174 5.3125 5.625 5.3125C5.02826 5.3125 4.45597 5.08862 4.03401 4.6901C3.61205 4.29159 3.375 3.75109 3.375 3.1875ZM11.0014 4.8705L11.0486 4.9045C11.526 5.23866 12.1239 5.38094 12.7119 5.30029C13.2999 5.21964 13.8302 4.92261 14.1872 4.47401C14.5441 4.02542 14.6987 3.46168 14.6172 2.90583C14.5357 2.34998 14.2247 1.84715 13.7521 1.50706C13.2795 1.16698 12.6836 1.01726 12.0945 1.09057C11.5055 1.16388 10.971 1.45428 10.6078 1.89838C10.2446 2.34249 10.0821 2.90425 10.1559 3.46107C10.2296 4.01788 10.5336 4.52455 11.0014 4.8705ZM7.0515 6.375C7.1928 6.1223 7.38662 5.89911 7.62136 5.71879C7.85611 5.53847 8.12695 5.40472 8.41769 5.32554C8.70842 5.24636 9.01309 5.22337 9.31345 5.25796C9.61381 5.29256 9.90369 5.38401 10.1658 5.52685C10.4278 5.6697 10.6567 5.861 10.8387 6.08932C11.0207 6.31763 11.152 6.57827 11.2249 6.85563C11.2978 7.133 11.3106 7.42139 11.2628 7.70357C11.2149 7.98574 11.1072 8.2559 10.9462 8.49788C10.6366 8.96339 10.1479 9.29742 9.58291 9.42981C9.01793 9.5622 8.4206 9.48263 7.91643 9.20782C7.41226 8.93302 7.04048 8.48437 6.87919 7.95612C6.7179 7.42787 6.77966 6.86114 7.0515 6.375ZM2.8125 6.375H5.81625C5.6925 6.70756 5.625 7.06563 5.625 7.4375C5.625 8.2535 5.95012 8.99937 6.4845 9.5625H6.1875C5.60749 9.56242 5.04163 9.73164 4.56737 10.047C4.09311 10.3623 3.73363 10.8084 3.53813 11.3241C3.1605 11.1809 2.80693 10.9865 2.4885 10.7472C1.6425 10.1044 1.125 9.1545 1.125 7.96875C1.125 7.54606 1.30279 7.14068 1.61926 6.8418C1.93572 6.54291 2.36495 6.375 2.8125 6.375ZM11.8125 9.5625C13.0331 9.5625 14.0726 10.2967 14.4608 11.3241C14.8433 11.1764 15.1976 10.9841 15.5115 10.7472C16.3575 10.1044 16.875 9.1545 16.875 7.96875C16.875 7.54606 16.6972 7.14068 16.3807 6.8418C16.0643 6.54291 15.6351 6.375 15.1875 6.375H12.1838C12.3075 6.70756 12.375 7.06563 12.375 7.4375C12.376 8.22175 12.0699 8.97864 11.5155 9.5625H11.8125ZM13.3729 11.611C13.455 11.798 13.5 12.0041 13.5 12.2188C13.5 13.4045 12.9836 14.3544 12.1365 14.9972C11.3029 15.6294 10.1846 15.9375 9 15.9375C7.81537 15.9375 6.69712 15.6294 5.8635 14.9972C5.0175 14.3544 4.5 13.4045 4.5 12.2188C4.49941 12.0093 4.54265 11.8018 4.62724 11.6082C4.71184 11.4146 4.83612 11.2387 4.99293 11.0905C5.14975 10.9424 5.33602 10.8251 5.54102 10.7452C5.74603 10.6653 5.96573 10.6244 6.1875 10.625H11.8125C12.1467 10.6249 12.4735 10.7186 12.7513 10.8941C13.0291 11.0697 13.2454 11.3192 13.3729 11.611Z" fill="#74C6A7"/>
</svg>
