<svg width="30" height="32" viewBox="0 0 30 32" fill="none" xmlns="http://www.w3.org/2000/svg">
<path d="M19.6877 27.9999C19.6877 28.2651 19.589 28.5195 19.4131 28.707C19.2373 28.8946 18.9989 28.9999 18.7502 28.9999H11.2502C11.0016 28.9999 10.7631 28.8946 10.5873 28.707C10.4115 28.5195 10.3127 28.2651 10.3127 27.9999C10.3127 27.7347 10.4115 27.4803 10.5873 27.2928C10.7631 27.1053 11.0016 26.9999 11.2502 26.9999H18.7502C18.9989 26.9999 19.2373 27.1053 19.4131 27.2928C19.589 27.4803 19.6877 27.7347 19.6877 27.9999ZM25.8752 21.9874C26.0415 22.2927 26.13 22.639 26.1321 22.992C26.1341 23.345 26.0496 23.6925 25.8869 23.9999C25.7229 24.3056 25.4856 24.5593 25.1994 24.735C24.9131 24.9107 24.5883 25.0022 24.258 24.9999H5.74242C5.41218 25.0022 5.08732 24.9107 4.8011 24.735C4.51488 24.5593 4.27759 24.3056 4.11351 23.9999C3.95084 23.6925 3.86634 23.345 3.86839 22.992C3.87045 22.639 3.95899 22.2927 4.12523 21.9874C4.81664 20.7124 5.64867 18.2874 5.64867 13.9999C5.64867 12.69 5.89055 11.3929 6.36051 10.1827C6.83047 8.97243 7.5193 7.8728 8.38768 6.94653C9.25605 6.02027 10.287 5.28551 11.4215 4.78422C12.5561 4.28293 13.7722 4.02492 15.0002 4.02492C16.2283 4.02492 17.4443 4.28293 18.5789 4.78422C19.7135 5.28551 20.7444 6.02027 21.6128 6.94653C22.4812 7.8728 23.17 8.97243 23.6399 10.1827C24.1099 11.3929 24.3518 12.69 24.3518 13.9999C24.3518 18.2874 25.1838 20.7124 25.8752 21.9874ZM24.258 22.9999C23.4494 21.5124 22.4768 18.7374 22.4768 13.9999C22.4807 12.9543 22.2913 11.9182 21.9193 10.9508C21.5472 9.98345 21 9.10386 20.3088 8.36242C19.6245 7.61672 18.8078 7.02378 17.9065 6.61817C17.0051 6.21256 16.0371 6.0024 15.0588 5.99992H15.0002C14.0164 5.99992 13.0423 6.20702 12.1336 6.60937C11.225 7.01171 10.3998 7.60138 9.7052 8.34458C9.01063 9.08777 8.4604 9.96988 8.08605 10.9403C7.71169 11.9108 7.52058 12.9505 7.52367 13.9999C7.52367 18.7374 6.55101 21.5124 5.74242 22.9999H24.258ZM26.7776 7.82492C25.7087 5.49645 24.0531 3.5314 21.9963 2.14992C21.785 2.00903 21.5298 1.96345 21.287 2.02323C21.0441 2.08301 20.8335 2.24324 20.7014 2.46867C20.5693 2.69411 20.5266 2.96628 20.5826 3.22531C20.6387 3.48435 20.7889 3.70903 21.0002 3.84992C22.7576 5.03596 24.1763 6.7135 25.1018 8.69992C25.1776 8.86963 25.2973 9.01271 25.4468 9.11236C25.5963 9.212 25.7693 9.26406 25.9455 9.26242C26.087 9.25782 26.2264 9.22386 26.3557 9.16242C26.5775 9.0443 26.7465 8.83725 26.8255 8.58659C26.9046 8.33592 26.8874 8.06205 26.7776 7.82492ZM4.89867 8.69992C5.8242 6.7135 7.24287 5.03596 9.00023 3.84992C9.10488 3.78016 9.19562 3.68909 9.26727 3.58192C9.33892 3.47475 9.39008 3.35357 9.41783 3.22531C9.44558 3.09705 9.44937 2.96422 9.42899 2.83439C9.40861 2.70457 9.36446 2.5803 9.29906 2.46867C9.23365 2.35705 9.14828 2.26026 9.04781 2.18383C8.94733 2.1074 8.83373 2.05283 8.71349 2.02323C8.47064 1.96345 8.21548 2.00903 8.00414 2.14992C5.94735 3.5314 4.29177 5.49645 3.22289 7.82492C3.1131 8.06205 3.09586 8.33592 3.17492 8.58659C3.25399 8.83725 3.42292 9.0443 3.64476 9.16242C3.77409 9.22386 3.91341 9.25782 4.05492 9.26242C4.23117 9.26406 4.40419 9.212 4.55366 9.11236C4.70313 9.01271 4.82282 8.86963 4.89867 8.69992Z" fill="white"/>
</svg>
