<svg width="38" height="38" viewBox="0 0 38 38" fill="none" xmlns="http://www.w3.org/2000/svg">
<path d="M3.7998 9.50001C3.7998 8.49219 4.20016 7.52564 4.9128 6.81301C5.62544 6.10037 6.59198 5.70001 7.5998 5.70001H30.3998C31.4076 5.70001 32.3742 6.10037 33.0868 6.81301C33.7994 7.52564 34.1998 8.49219 34.1998 9.50001V15.4774C33.6271 14.9647 32.9881 14.5314 32.2998 14.1892V9.50001C32.2998 8.9961 32.0996 8.51283 31.7433 8.15651C31.387 7.80019 30.9037 7.60001 30.3998 7.60001H7.5998C7.09589 7.60001 6.61262 7.80019 6.2563 8.15651C5.89998 8.51283 5.6998 8.9961 5.6998 9.50001V24.7C5.6998 25.2039 5.89998 25.6872 6.2563 26.0435C6.61262 26.3998 7.09589 26.6 7.5998 26.6H21.39C21.5344 26.8147 21.6883 27.0237 21.8498 27.2251V28.5H7.5998C6.59198 28.5 5.62544 28.0997 4.9128 27.387C4.20016 26.6744 3.7998 25.7078 3.7998 24.7V9.50001ZM35.1498 21.85C35.1498 23.6626 34.4259 25.3042 33.2498 26.505V34.2C33.2498 34.3764 33.2007 34.5494 33.1079 34.6995C33.0152 34.8495 32.8825 34.9708 32.7247 35.0497C32.5669 35.1286 32.3902 35.162 32.2145 35.1462C32.0388 35.1303 31.8709 35.0659 31.7298 34.96L29.0698 32.965C28.9054 32.8417 28.7054 32.775 28.4998 32.775C28.2943 32.775 28.0942 32.8417 27.9298 32.965L25.2698 34.96C25.1287 35.0659 24.9608 35.1303 24.7851 35.1462C24.6094 35.162 24.4328 35.1286 24.275 35.0497C24.1171 34.9708 23.9844 34.8495 23.8917 34.6995C23.7989 34.5494 23.7498 34.3764 23.7498 34.2V26.505C22.9865 25.7259 22.4265 24.7711 22.1192 23.7246C21.8119 22.6781 21.7667 21.5721 21.9877 20.504C22.2086 19.4359 22.6888 18.4386 23.3861 17.5998C24.0833 16.7611 24.9761 16.1068 25.9859 15.6945C26.9956 15.2821 28.0913 15.1245 29.1763 15.2355C30.2614 15.3464 31.3024 15.7226 32.2078 16.3307C33.1132 16.9389 33.8551 17.7604 34.3682 18.7229C34.8812 19.6854 35.1496 20.7593 35.1498 21.85ZM28.4998 28.5C27.4795 28.5 26.5143 28.272 25.6498 27.8597V31.825L28.0115 30.4076C28.159 30.3192 28.3278 30.2725 28.4998 30.2725C28.6718 30.2725 28.8406 30.3192 28.9881 30.4076L31.3498 31.825V27.8597C30.4593 28.2826 29.4856 28.5013 28.4998 28.5ZM28.4998 26.6C29.7596 26.6 30.9678 26.0996 31.8586 25.2088C32.7494 24.318 33.2498 23.1098 33.2498 21.85C33.2498 20.5902 32.7494 19.3821 31.8586 18.4913C30.9678 17.6005 29.7596 17.1 28.4998 17.1C27.24 17.1 26.0318 17.6005 25.141 18.4913C24.2502 19.3821 23.7498 20.5902 23.7498 21.85C23.7498 23.1098 24.2502 24.318 25.141 25.2088C26.0318 26.0996 27.24 26.6 28.4998 26.6ZM9.4998 12.35C9.4998 12.0981 9.59989 11.8564 9.77805 11.6783C9.95621 11.5001 10.1978 11.4 10.4498 11.4H27.5498C27.8018 11.4 28.0434 11.5001 28.2216 11.6783C28.3997 11.8564 28.4998 12.0981 28.4998 12.35C28.4998 12.602 28.3997 12.8436 28.2216 13.0218C28.0434 13.1999 27.8018 13.3 27.5498 13.3H10.4498C10.1978 13.3 9.95621 13.1999 9.77805 13.0218C9.59989 12.8436 9.4998 12.602 9.4998 12.35ZM10.4498 20.9C10.1978 20.9 9.95621 21.0001 9.77805 21.1783C9.59989 21.3564 9.4998 21.5981 9.4998 21.85C9.4998 22.102 9.59989 22.3436 9.77805 22.5218C9.95621 22.6999 10.1978 22.8 10.4498 22.8H18.0498C18.3018 22.8 18.5434 22.6999 18.7216 22.5218C18.8997 22.3436 18.9998 22.102 18.9998 21.85C18.9998 21.5981 18.8997 21.3564 18.7216 21.1783C18.5434 21.0001 18.3018 20.9 18.0498 20.9H10.4498Z" fill="#74C6A7"/>
</svg>
