<svg width="28" height="28" viewBox="0 0 28 28" fill="none" xmlns="http://www.w3.org/2000/svg">
<path d="M4.66683 21H7.00016V25.7612L12.9513 21H18.6668C19.9537 21 21.0002 19.9535 21.0002 18.6667V9.33333C21.0002 8.0465 19.9537 7 18.6668 7H4.66683C3.38 7 2.3335 8.0465 2.3335 9.33333V18.6667C2.3335 19.9535 3.38 21 4.66683 21Z" fill="#A4A4A4"/>
<path d="M23.3333 2.33337H9.33333C8.0465 2.33337 7 3.37987 7 4.66671H21C22.2868 4.66671 23.3333 5.71321 23.3333 7.00004V16.3334C24.6202 16.3334 25.6667 15.2869 25.6667 14V4.66671C25.6667 3.37987 24.6202 2.33337 23.3333 2.33337Z" fill="#A4A4A4"/>
</svg>
