<svg width="22" height="22" viewBox="0 0 22 22" fill="none" xmlns="http://www.w3.org/2000/svg">
<path d="M12.3337 6.83381C12.5274 6.64941 12.7851 6.54746 13.0525 6.54948C13.32 6.55151 13.5761 6.65734 13.767 6.84465C13.9579 7.03197 14.0686 7.28611 14.0756 7.55345C14.0827 7.82079 13.9856 8.08042 13.8049 8.27756L8.31866 15.1388C8.22432 15.2404 8.11047 15.322 7.98389 15.3786C7.85732 15.4352 7.72063 15.4657 7.58201 15.4682C7.44338 15.4708 7.30566 15.4454 7.17708 15.3935C7.0485 15.3416 6.9317 15.2644 6.83366 15.1663L3.19541 11.5281C3.09409 11.4336 3.01283 11.3198 2.95646 11.1933C2.9001 11.0668 2.86979 10.9302 2.86735 10.7918C2.8649 10.6533 2.89038 10.5158 2.94224 10.3874C2.99411 10.259 3.07131 10.1423 3.16923 10.0444C3.26716 9.94646 3.38381 9.86926 3.51221 9.81739C3.64062 9.76552 3.77816 9.74005 3.91663 9.7425C4.0551 9.74494 4.19165 9.77525 4.31815 9.83161C4.44465 9.88797 4.5585 9.96924 4.65291 10.0706L7.53216 12.9484L12.3062 6.86406C12.3147 6.85344 12.3239 6.84334 12.3337 6.83381ZM11.0687 13.9013L12.3337 15.1663C12.4317 15.2641 12.5484 15.3412 12.6768 15.393C12.8053 15.4447 12.9429 15.4701 13.0813 15.4675C13.2198 15.4649 13.3563 15.4345 13.4827 15.378C13.6092 15.3216 13.723 15.2402 13.8173 15.1388L19.3063 8.27756C19.4049 8.18021 19.4829 8.06399 19.5356 7.93584C19.5882 7.80769 19.6146 7.67023 19.6129 7.53168C19.6113 7.39313 19.5818 7.25632 19.5261 7.12943C19.4705 7.00254 19.3898 6.88817 19.289 6.79315C19.1881 6.69813 19.0692 6.6244 18.9392 6.57638C18.8092 6.52835 18.6709 6.50701 18.5325 6.51363C18.3941 6.52025 18.2585 6.55469 18.1337 6.6149C18.0089 6.67511 17.8975 6.75985 17.8062 6.86406L13.0308 12.9484L12.3639 12.2802L11.0673 13.9013H11.0687Z" fill="#74C6A7"/>
</svg>
