<svg width="26" height="26" viewBox="0 0 26 26" fill="none" xmlns="http://www.w3.org/2000/svg">
<path d="M15.1667 2.16666C17.1492 2.16571 19.0721 2.84446 20.6146 4.08971C22.1572 5.33496 23.2262 7.07142 23.6434 9.0095C24.0606 10.9476 23.8008 12.9701 22.9072 14.7398C22.0136 16.5094 20.5403 17.9192 18.733 18.7341C18.1554 20.0112 17.2765 21.1292 16.1719 21.9921C15.0673 22.855 13.7698 23.4372 12.3908 23.6885C11.0118 23.9399 9.59241 23.853 8.25435 23.4354C6.91629 23.0178 5.6995 22.2818 4.70833 21.2906C3.71716 20.2994 2.98119 19.0827 2.56355 17.7446C2.14591 16.4065 2.05905 14.9871 2.31042 13.6081C2.5618 12.2291 3.14391 10.9317 4.00683 9.82706C4.86975 8.72243 5.98772 7.84359 7.26488 7.26591C7.95186 5.74587 9.06276 4.45628 10.4643 3.55182C11.8659 2.64735 13.4986 2.1664 15.1667 2.16666ZM10.8334 8.66666C9.97978 8.66666 9.13455 8.83479 8.34593 9.16144C7.55732 9.4881 6.84076 9.96688 6.23718 10.5705C5.6336 11.174 5.15481 11.8906 4.82816 12.6792C4.5015 13.4678 4.33338 14.3131 4.33338 15.1667C4.33338 16.0203 4.5015 16.8655 4.82816 17.6541C5.15481 18.4427 5.6336 19.1593 6.23718 19.7629C6.84076 20.3664 7.55732 20.8452 8.34593 21.1719C9.13455 21.4985 9.97978 21.6667 10.8334 21.6667C12.5573 21.6667 14.2106 20.9818 15.4296 19.7629C16.6486 18.5439 17.3334 16.8906 17.3334 15.1667C17.3334 13.4428 16.6486 11.7895 15.4296 10.5705C14.2106 9.35148 12.5573 8.66666 10.8334 8.66666ZM11.9167 9.74999V10.8333H14.0834V13H9.75004C9.61469 12.9997 9.48414 13.0502 9.38411 13.1414C9.28408 13.2326 9.22182 13.3579 9.20959 13.4927C9.19736 13.6275 9.23605 13.762 9.31803 13.8697C9.40001 13.9774 9.51935 14.0505 9.65254 14.0747L9.75004 14.0833H11.9167C12.635 14.0833 13.3239 14.3687 13.8318 14.8766C14.3397 15.3845 14.625 16.0734 14.625 16.7917C14.625 17.51 14.3397 18.1988 13.8318 18.7067C13.3239 19.2146 12.635 19.5 11.9167 19.5V20.5833H9.75004V19.5H7.58338V17.3333H11.9167C12.0521 17.3336 12.1826 17.2831 12.2826 17.1919C12.3827 17.1007 12.4449 16.9754 12.4572 16.8406C12.4694 16.7058 12.4307 16.5713 12.3487 16.4636C12.2667 16.3559 12.1474 16.2828 12.0142 16.2587L11.9167 16.25H9.75004C9.03175 16.25 8.34287 15.9647 7.83496 15.4567C7.32705 14.9488 7.04171 14.26 7.04171 13.5417C7.04171 12.8234 7.32705 12.1345 7.83496 11.6266C8.34287 11.1187 9.03175 10.8333 9.75004 10.8333V9.74999H11.9167ZM15.1667 4.33332C14.2488 4.33225 13.3411 4.52609 12.5037 4.90203C11.6663 5.27797 10.9182 5.82743 10.309 6.51407C11.5335 6.43974 12.7598 6.62619 13.9068 7.0611C15.0538 7.49601 16.0955 8.16946 16.9628 9.03692C17.8302 9.90438 18.5035 10.9461 18.9383 12.0932C19.373 13.2402 19.5594 14.4665 19.4849 15.691C20.4699 14.8153 21.1653 13.6608 21.4791 12.3807C21.7928 11.1006 21.71 9.75531 21.2416 8.52336C20.7733 7.2914 19.9414 6.23093 18.8565 5.48261C17.7715 4.73429 16.4847 4.33348 15.1667 4.33332Z" fill="#74C6A7"/>
</svg>
