<svg width="18" height="17" viewBox="0 0 18 17" fill="none" xmlns="http://www.w3.org/2000/svg">
<path d="M6.28844 1.75609C6.68227 1.64394 7.10488 1.66257 7.48593 1.80888C7.86698 1.95518 8.18348 2.22033 8.38274 2.56019L8.44934 2.68684L9.04514 3.93719C9.22596 4.3167 9.28465 4.73804 9.21392 5.14881C9.1432 5.55957 8.94617 5.94164 8.64734 6.24749L8.52764 6.35969L7.58894 7.18674C7.41974 7.33804 7.54664 7.92369 8.15864 8.92499C8.70944 9.82599 9.15764 10.2467 9.37814 10.2697H9.41684L9.46454 10.2612L11.3095 9.72824C11.5575 9.65641 11.8221 9.65357 12.0717 9.72005C12.3214 9.78653 12.5454 9.91951 12.7171 10.1031L12.799 10.2008L14.0203 11.7988C14.2597 12.1121 14.379 12.4929 14.3585 12.8787C14.3381 13.2645 14.1791 13.6322 13.9078 13.9213L13.798 14.0284L13.3102 14.4653C12.8722 14.8571 12.3243 15.1218 11.7316 15.228C11.1388 15.3343 10.5263 15.2775 9.96674 15.0645C8.22524 14.4015 6.64304 12.8868 5.20574 10.5357C3.76574 8.17869 3.16724 6.12424 3.43454 4.36474C3.51543 3.83286 3.74733 3.33161 4.10561 2.91421C4.4639 2.49681 4.93519 2.17884 5.46944 1.99409L5.64314 1.93969L6.28844 1.75609Z" fill="#74C6A7"/>
</svg>
