<svg width="47" height="66" viewBox="0 0 47 47" fill="none" xmlns="http://www.w3.org/2000/svg">
<path d="M23.5 47L17.625 38.1875H20.5625V32.3125H26.4375V38.1875H29.375L23.5 47Z" fill="#74C6A7"/>
<path d="M44.0625 2.9375V26.4375H2.9375V2.9375H44.0625ZM47 0H0V29.375H47V0Z" fill="#74C6A7"/>
<path d="M23.5 5.875C25.8372 5.875 28.0787 6.80346 29.7314 8.45612C31.384 10.1088 32.3125 12.3503 32.3125 14.6875C32.3125 17.0247 31.384 19.2662 29.7314 20.9189C28.0787 22.5715 25.8372 23.5 23.5 23.5H38.1875V20.5625H41.125V8.8125H38.1875V5.875H23.5Z" fill="#74C6A7"/>
<path d="M14.6875 14.6875C14.6875 12.3503 15.616 10.1088 17.2686 8.45612C18.9213 6.80346 21.1628 5.875 23.5 5.875H8.8125V8.8125H5.875V20.5625H8.8125V23.5H23.5C21.1628 23.5 18.9213 22.5715 17.2686 20.9189C15.616 19.2662 14.6875 17.0247 14.6875 14.6875Z" fill="#74C6A7"/>
</svg>
