<svg width="17" height="17" viewBox="0 0 17 17" fill="none" xmlns="http://www.w3.org/2000/svg">
<path d="M13.9 8.95344C13.9 8.82054 13.9528 8.69308 14.0468 8.5991C14.1408 8.50512 14.2682 8.45232 14.4011 8.45232C14.534 8.45232 14.6615 8.50512 14.7555 8.5991C14.8494 8.69308 14.9022 8.82054 14.9022 8.95344V14.4657C14.9022 14.5986 14.8494 14.7261 14.7555 14.82C14.6615 14.914 14.534 14.9668 14.4011 14.9668H3.3766C3.2437 14.9668 3.11624 14.914 3.02226 14.82C2.92828 14.7261 2.87549 14.5986 2.87549 14.4657V3.44118C2.87549 3.30827 2.92828 3.18081 3.02226 3.08684C3.11624 2.99286 3.2437 2.94006 3.3766 2.94006H8.88886C9.02177 2.94006 9.14923 2.99286 9.24321 3.08684C9.33718 3.18081 9.38998 3.30827 9.38998 3.44118C9.38998 3.57408 9.33718 3.70154 9.24321 3.79552C9.14923 3.8895 9.02177 3.94229 8.88886 3.94229H3.87772V13.9646H13.9V8.95344Z" fill="black"/>
<path d="M8.23067 9.6149L9.05751 9.49664L14.1368 4.41835C14.1847 4.37212 14.2228 4.31682 14.2491 4.25569C14.2754 4.19455 14.2892 4.12879 14.2898 4.06225C14.2903 3.99572 14.2777 3.92973 14.2525 3.86815C14.2273 3.80656 14.1901 3.75061 14.143 3.70356C14.096 3.65651 14.04 3.6193 13.9784 3.5941C13.9168 3.56891 13.8509 3.55623 13.7843 3.5568C13.7178 3.55738 13.652 3.57121 13.5909 3.59747C13.5297 3.62373 13.4745 3.66191 13.4282 3.70977L8.34793 8.78807L8.22966 9.6149H8.23067ZM14.8454 3.00019C14.9851 3.1398 15.0959 3.30557 15.1715 3.48803C15.2471 3.67049 15.286 3.86605 15.286 4.06356C15.286 4.26106 15.2471 4.45663 15.1715 4.63908C15.0959 4.82154 14.9851 4.98731 14.8454 5.12692L9.64882 10.3235C9.57219 10.4004 9.47265 10.4503 9.36519 10.4658L7.71151 10.7023C7.63444 10.7134 7.55586 10.7063 7.48199 10.6818C7.40811 10.6572 7.34099 10.6157 7.28593 10.5606C7.23088 10.5056 7.18941 10.4385 7.16482 10.3646C7.14022 10.2907 7.13318 10.2121 7.14425 10.1351L7.38078 8.48138C7.39596 8.37404 7.44555 8.27452 7.52209 8.19775L12.7197 3.00119C13.0016 2.71936 13.3839 2.56104 13.7825 2.56104C14.1811 2.56104 14.5635 2.71936 14.8454 3.00119V3.00019Z" fill="black"/>
</svg>
