<svg width="66" height="66" viewBox="0 0 66 66" fill="none" xmlns="http://www.w3.org/2000/svg">
<path d="M35.7061 13.7307C35.7055 13.1334 35.8994 12.552 36.2585 12.0747C36.6177 11.5973 37.1225 11.2499 37.6966 11.0849C38.2707 10.9199 38.883 10.9464 39.4407 11.1603C39.9985 11.3742 40.4715 11.7639 40.7881 12.2705L48.1801 19.6625C48.4354 19.918 48.6379 20.2213 48.776 20.555C48.9141 20.8888 48.9851 21.2465 48.985 21.6077C48.9849 21.9689 48.9136 22.3266 48.7752 22.6602C48.6369 22.9939 48.4342 23.297 48.1787 23.5524C47.9232 23.8077 47.6199 24.0102 47.2861 24.1483C46.9524 24.2864 46.5947 24.3574 46.2335 24.3573C45.8723 24.3572 45.5146 24.2859 45.1809 24.1475C44.8473 24.0092 44.5441 23.8065 44.2888 23.551L41.2088 20.4682V41.2307C41.2088 41.9601 40.9191 42.6595 40.4033 43.1753C39.8876 43.691 39.1881 43.9807 38.4588 43.9807C37.7295 43.9807 37.03 43.691 36.5143 43.1753C35.9985 42.6595 35.7088 41.9601 35.7088 41.2307V13.7307H35.7061Z" fill="#74C6A7"/>
<path d="M30.2941 52.2692C30.2947 52.8666 30.1007 53.4479 29.7416 53.9253C29.3825 54.4026 28.8777 54.7501 28.3035 54.9151C27.7294 55.08 27.1171 55.0536 26.5594 54.8397C26.0016 54.6258 25.5287 54.2361 25.2121 53.7295L17.8201 46.3375C17.3044 45.8215 17.0149 45.1218 17.0151 44.3923C17.0154 43.6628 17.3054 42.9633 17.8214 42.4476C18.3375 41.932 19.0372 41.6424 19.7667 41.6427C20.4962 41.6429 21.1957 41.933 21.7113 42.449L24.7913 45.5317V24.7692C24.7913 24.0399 25.0811 23.3404 25.5968 22.8247C26.1125 22.309 26.812 22.0192 27.5413 22.0192C28.2707 22.0192 28.9701 22.309 29.4859 22.8247C30.0016 23.3404 30.2913 24.0399 30.2913 24.7692V52.2692H30.2941Z" fill="#74C6A7"/>
</svg>
