<svg width="36" height="30" viewBox="0 0 36 30" fill="none" xmlns="http://www.w3.org/2000/svg">
<path d="M24.2929 23.6816C26.0951 24.7909 27.1061 26.6237 26.9303 28.5047C26.8424 29.6623 26.8863 29.6623 25.5237 29.8552C24.6885 29.9516 19.3698 29.9999 13.9632 29.9999C7.8094 29.9999 1.39181 29.9516 0.908298 29.807C-0.893901 29.2764 0.161045 25.6108 2.53467 23.8745C4.42478 22.5722 8.24896 20.5465 9.3039 20.3053C10.7545 19.9677 10.9303 18.9549 9.3039 15.9163C8.95226 15.1928 8.55665 13.1189 8.5127 10.9002C8.46874 7.33107 9.04017 4.91949 11.8973 3.71371C12.4248 3.52078 13.0402 3.42432 13.6116 3.42432C15.5017 3.42432 17.2599 4.58187 18.0072 6.26998C19.0182 8.53686 18.5347 14.4693 17.4797 16.6398C16.205 19.0996 16.3369 19.8713 17.7435 20.2571C18.6226 20.4983 21.5237 21.9934 24.2929 23.6816ZM33.9193 20.643C35.3259 21.4629 36.1171 22.9581 35.9852 24.405C35.9413 25.2732 35.9413 25.3214 34.8863 25.4661C34.3589 25.5626 31.5896 25.6108 28.3369 25.6108C27.7654 24.1156 26.6665 22.7652 25.172 21.897C23.4578 20.8359 21.4358 19.7266 19.8973 19.0031C20.9083 18.4725 21.7874 18.0385 22.183 17.942C23.2819 17.6526 23.4138 16.9774 22.183 14.5658C21.8753 13.987 21.5237 12.3471 21.4797 10.6108C21.4358 7.81338 22.0072 5.88412 24.205 4.96772C24.6446 4.82303 25.1281 4.72657 25.5676 4.72657C27.0182 4.72657 28.3808 5.59473 28.9523 6.94522C29.6995 8.72978 29.3479 13.36 28.5567 15.0963C27.5896 17.0256 27.6775 17.6044 28.7764 17.8938C29.4797 18.0867 31.7215 19.2925 33.9193 20.643Z" fill="#74C6A7"/>
</svg>
