<svg width="48" height="66" viewBox="0 0 48 48" fill="none" xmlns="http://www.w3.org/2000/svg">
<path d="M26.0128 2.99331C25.5094 2.95615 25.0048 2.93753 24.5 2.9375V0C25.0773 0.000281493 25.6544 0.0218378 26.2302 0.064625L26.0128 2.99331ZM31.8996 4.31519C30.9579 3.95183 29.9908 3.65827 29.0061 3.43687L29.6494 0.569875C30.7745 0.8225 31.8819 1.15737 32.9571 1.5745L31.8996 4.31519ZM35.9239 6.40081C35.504 6.12072 35.0738 5.85617 34.6344 5.60769L36.0826 3.05206C37.0869 3.62116 38.0481 4.26326 38.9584 4.97319L37.1518 7.29088C36.7536 6.98018 36.344 6.68427 35.9239 6.40375V6.40081ZM41.3113 11.6589C40.7303 10.8334 40.0891 10.0519 39.3931 9.32069L41.5199 7.29381C42.313 8.131 43.0474 9.02694 43.7142 9.96694L41.3113 11.6589ZM43.4968 15.6304C43.304 15.1647 43.0943 14.7062 42.8682 14.2557L45.4914 12.9338C46.0101 13.9651 46.452 15.0334 46.8132 16.1298L44.0226 17.0492C43.8648 16.57 43.6894 16.0968 43.4968 15.6304ZM45.0537 22.9948C45.0299 21.9852 44.9317 20.9789 44.7599 19.9838L47.6534 19.4844C47.8502 20.6183 47.9648 21.7698 47.9941 22.9213L45.0566 22.9948H45.0537ZM44.6689 27.5126C44.7658 27.0133 44.8451 26.5168 44.9068 26.0145L47.8237 26.3758C47.6827 27.5219 47.4568 28.6559 47.1481 29.7686L44.3164 28.9843C44.4515 28.4996 44.569 28.0091 44.6689 27.5126ZM41.8724 34.5009C42.4129 33.6491 42.8887 32.7561 43.3 31.8337L45.9849 33.0234C45.5149 34.0809 44.9714 35.0972 44.3546 36.0725L41.8724 34.5009ZM39.0406 38.0406C39.399 37.6823 39.7427 37.3121 40.0688 36.9302L42.2954 38.8484C41.9183 39.2856 41.5254 39.7089 41.1174 40.1174L39.0406 38.0406Z" fill="#74C6A7"/>
<path d="M24.4999 2.9375C21.1185 2.93774 17.7893 3.77189 14.8073 5.36604C11.8252 6.9602 9.28232 9.26517 7.40382 12.0768C5.52532 14.8884 4.36919 18.1199 4.03784 21.4851C3.7065 24.8502 4.21015 28.2451 5.50419 31.3691C6.79824 34.4931 8.84273 37.2498 11.4566 39.395C14.0705 41.5401 17.173 43.0076 20.4894 43.6673C23.8059 44.3271 27.2338 44.1588 30.4697 43.1773C33.7055 42.1958 36.6494 40.4315 39.0405 38.0406L41.1173 40.1174C38.3847 42.8516 35.0198 44.8695 31.3209 45.9924C27.622 47.1153 23.7032 47.3085 19.9117 46.5549C16.1203 45.8013 12.5732 44.1241 9.58489 41.672C6.59654 39.2199 4.25916 36.0686 2.77983 32.4972C1.3005 28.9259 0.724909 25.0448 1.10405 21.1978C1.48318 17.3508 2.80534 13.6567 4.95338 10.4429C7.10143 7.229 10.009 4.59458 13.4186 2.77301C16.8281 0.951442 20.6343 -0.0010244 24.4999 8.26784e-07V2.9375Z" fill="#74C6A7"/>
<path d="M23.0312 8.8125C23.4208 8.8125 23.7944 8.96724 24.0698 9.24269C24.3453 9.51813 24.5 9.89171 24.5 10.2813V25.5856L34.041 31.0376C34.3694 31.2357 34.6073 31.5544 34.7038 31.9256C34.8003 32.2968 34.7478 32.691 34.5576 33.024C34.3673 33.3569 34.0543 33.6023 33.6855 33.7076C33.3167 33.8129 32.9214 33.7697 32.584 33.5874L22.3027 27.7124C22.078 27.584 21.8911 27.3984 21.7611 27.1745C21.6311 26.9507 21.5626 26.6964 21.5625 26.4375V10.2813C21.5625 9.89171 21.7172 9.51813 21.9927 9.24269C22.2681 8.96724 22.6417 8.8125 23.0312 8.8125Z" fill="#74C6A7"/>
</svg>
