<svg width="28" height="28" viewBox="0 0 28 28" fill="none" xmlns="http://www.w3.org/2000/svg">
<path d="M25.9999 11.0013V25.5497C26 25.8744 25.9353 26.1959 25.8097 26.4955C25.6841 26.795 25.5 27.0667 25.2682 27.2947C25.0364 27.5226 24.7615 27.7024 24.4594 27.8234C24.1574 27.9444 23.8342 28.0044 23.5087 27.9998H2.45613C1.80473 27.9998 1.18 27.7416 0.719385 27.2822C0.25877 26.8227 0 26.1995 0 25.5497V10.9896C0.000647779 10.6266 0.0829468 10.2683 0.240833 9.9412C0.39872 9.6141 0.62817 9.3265 0.912278 9.0996L11.4386 0.54787C11.8747 0.193502 12.4199 0 12.9824 0C13.5449 0 14.0902 0.193502 14.5263 0.54787L25.1344 9.11127C25.4081 9.34431 25.6274 9.63424 25.7769 9.96072C25.9264 10.2872 26.0025 10.6424 25.9999 11.0013Z" fill="#74C6A7"/>
<path d="M18 18.8509V28H8V18.8509C7.99999 18.7382 8.02468 18.6266 8.07263 18.5226C8.12059 18.4186 8.19086 18.3243 8.27935 18.2451C8.36785 18.166 8.47281 18.1035 8.58814 18.0615C8.70346 18.0194 8.82686 17.9985 8.95116 18.0001H17.0488C17.1731 17.9985 17.2965 18.0194 17.4119 18.0615C17.5272 18.1035 17.6322 18.166 17.7206 18.2451C17.8091 18.3243 17.8794 18.4186 17.9274 18.5226C17.9753 18.6266 18 18.7382 18 18.8509Z" fill="#B8E4CA"/>
</svg>
