<svg width="34" height="34" viewBox="0 0 34 34" fill="none" xmlns="http://www.w3.org/2000/svg">
<path d="M16.9998 8.35841C17.3905 8.35841 17.7774 8.43537 18.1383 8.58487C18.4993 8.73438 18.8272 8.95352 19.1035 9.22977C19.3797 9.50603 19.5989 9.83399 19.7484 10.1949C19.8979 10.5559 19.9748 10.9427 19.9748 11.3334C19.9748 11.7241 19.8979 12.111 19.7484 12.4719C19.5989 12.8328 19.3797 13.1608 19.1035 13.4371C18.8272 13.7133 18.4993 13.9324 18.1383 14.082C17.7774 14.2315 17.3905 14.3084 16.9998 14.3084C16.2108 14.3084 15.4541 13.995 14.8962 13.4371C14.3383 12.8791 14.0248 12.1224 14.0248 11.3334C14.0248 10.5444 14.3383 9.78769 14.8962 9.22977C15.4541 8.67185 16.2108 8.35841 16.9998 8.35841ZM16.9998 21.1084C21.2073 21.1084 25.6415 23.1767 25.6415 24.0834V25.6417H8.35817V24.0834C8.35817 23.1767 12.7923 21.1084 16.9998 21.1084ZM16.9998 5.66675C13.869 5.66675 11.3332 8.20258 11.3332 11.3334C11.3332 14.4642 13.869 17.0001 16.9998 17.0001C20.1307 17.0001 22.6665 14.4642 22.6665 11.3334C22.6665 8.20258 20.1307 5.66675 16.9998 5.66675ZM16.9998 18.4167C13.2173 18.4167 5.6665 20.3151 5.6665 24.0834V28.3334H28.3332V24.0834C28.3332 20.3151 20.7823 18.4167 16.9998 18.4167Z" fill="#74C6A7"/>
</svg>
