<svg width="18" height="18" viewBox="0 0 18 18" fill="none" xmlns="http://www.w3.org/2000/svg">
<path d="M6 13.5L7.5 12H9L10.02 10.98C11.0626 11.3432 12.1977 11.3418 13.2394 10.9759C14.2811 10.61 15.1677 9.90135 15.7542 8.96591C16.3407 8.03047 16.5923 6.92365 16.4678 5.8266C16.3433 4.72956 15.85 3.70727 15.0688 2.92705C14.2876 2.14683 13.2647 1.6549 12.1675 1.53176C11.0703 1.40863 9.96383 1.66159 9.02913 2.24924C8.09442 2.83689 7.38688 3.72443 7.0223 4.76659C6.65772 5.80875 6.6577 6.9438 7.02225 7.98597L1.5 13.5V16.5H4.5L6 15V13.5Z" stroke="black" stroke-width="2" stroke-linecap="round" stroke-linejoin="round"/>
<path d="M12.75 6C13.1642 6 13.5 5.66421 13.5 5.25C13.5 4.83579 13.1642 4.5 12.75 4.5C12.3358 4.5 12 4.83579 12 5.25C12 5.66421 12.3358 6 12.75 6Z" stroke="black" stroke-width="2" stroke-linecap="round" stroke-linejoin="round"/>
</svg>
