<svg width="36" height="37" viewBox="0 0 36 37" fill="none" xmlns="http://www.w3.org/2000/svg">
<path d="M19.5 4.625C15.9196 4.625 12.4858 6.08683 9.95406 8.68889C7.42232 11.291 6 14.8201 6 18.5H1.5L7.335 24.4971L7.44 24.7129L13.5 18.5H9C9 12.5338 13.695 7.70833 19.5 7.70833C25.305 7.70833 30 12.5338 30 18.5C30 24.4662 25.305 29.2917 19.5 29.2917C16.605 29.2917 13.98 28.0737 12.09 26.1158L9.96 28.305C11.2101 29.5969 12.6967 30.6217 14.3341 31.3203C15.9715 32.0188 17.7272 32.3773 19.5 32.375C23.0804 32.375 26.5142 30.9132 29.0459 28.3111C31.5777 25.709 33 22.1799 33 18.5C33 14.8201 31.5777 11.291 29.0459 8.68889C26.5142 6.08683 23.0804 4.625 19.5 4.625ZM18 12.3333V20.0417L24.375 23.9267L25.53 21.9379L20.25 18.7158V12.3333H18Z" fill="#74C6A7"/>
</svg>
