<svg width="23" height="23" viewBox="0 0 23 23" fill="none" xmlns="http://www.w3.org/2000/svg">
<path d="M19.167 19.1667H3.83366C3.32533 19.1667 2.83782 18.9648 2.47837 18.6053C2.11893 18.2459 1.91699 17.7584 1.91699 17.25V5.66667C1.93849 5.17292 2.14988 4.70657 2.50702 4.36496C2.86416 4.02336 3.33945 3.83291 3.83366 3.83337H19.167C19.6753 3.83337 20.1628 4.03531 20.5223 4.39475C20.8817 4.7542 21.0837 5.24171 21.0837 5.75004V17.25C21.0837 17.7584 20.8817 18.2459 20.5223 18.6053C20.1628 18.9648 19.6753 19.1667 19.167 19.1667ZM3.83366 7.54021V17.25H19.167V7.54021L11.5003 12.65L3.83366 7.54021ZM4.60033 5.75004L11.5003 10.35L18.4003 5.75004H4.60033Z" fill="black"/>
</svg>
