<svg width="18" height="19" viewBox="0 0 18 19" fill="none" xmlns="http://www.w3.org/2000/svg">
<g clip-path="url(#clip0_113_243)">
<path fill-rule="evenodd" clip-rule="evenodd" d="M9.00001 0.879211C8.22376 0.879211 6.92663 1.17734 5.70601 1.50921C4.45726 1.84671 3.19838 2.24609 2.45813 2.48796C2.14863 2.59017 1.87425 2.77761 1.66649 3.02875C1.45873 3.27989 1.32603 3.58454 1.28363 3.90771C0.613131 8.94434 2.16901 12.6771 4.05676 15.1465C4.85729 16.2028 5.81179 17.133 6.88838 17.9061C7.32263 18.2132 7.72538 18.4483 8.06738 18.6092C8.38238 18.7577 8.72101 18.8792 9.00001 18.8792C9.27901 18.8792 9.61651 18.7577 9.93263 18.6092C10.3449 18.4088 10.7394 18.1736 11.1116 17.9061C12.1882 17.133 13.1428 16.2028 13.9433 15.1465C15.831 12.6771 17.3869 8.94434 16.7164 3.90771C16.6741 3.58439 16.5414 3.27956 16.3336 3.02822C16.1259 2.77689 15.8515 2.58924 15.5419 2.48684C14.4673 2.1345 13.3843 1.80816 12.294 1.50809C11.0734 1.17846 9.77626 0.879211 9.00001 0.879211ZM9.00001 6.50421C9.39852 6.50362 9.78439 6.64408 10.0893 6.90073C10.3941 7.15738 10.5984 7.51364 10.6657 7.90642C10.7331 8.29921 10.6593 8.70316 10.4574 9.04674C10.2554 9.39031 9.93844 9.65134 9.56251 9.78359L9.99563 12.0223C10.0114 12.1038 10.0089 12.1877 9.98848 12.268C9.96801 12.3484 9.93002 12.4233 9.87723 12.4872C9.82444 12.5512 9.75816 12.6027 9.68314 12.6381C9.60811 12.6734 9.52619 12.6917 9.44326 12.6917H8.55676C8.47391 12.6916 8.39213 12.6731 8.31724 12.6377C8.24235 12.6023 8.17621 12.5507 8.12355 12.4868C8.07088 12.4228 8.033 12.3481 8.01259 12.2678C7.99218 12.1875 7.98977 12.1037 8.00551 12.0223L8.43751 9.78359C8.06157 9.65134 7.74457 9.39031 7.54264 9.04674C7.34072 8.70316 7.26691 8.29921 7.33428 7.90642C7.40165 7.51364 7.60586 7.15738 7.91074 6.90073C8.21562 6.64408 8.60149 6.50362 9.00001 6.50421Z" fill="#74C6A7"/>
</g>
<defs>
<clipPath id="clip0_113_243">
<rect width="18" height="18" fill="white" transform="translate(0 0.879211)"/>
</clipPath>
</defs>
</svg>
