<svg width="28" height="28" viewBox="0 0 28 28" fill="none" xmlns="http://www.w3.org/2000/svg">
<path d="M26 21.4966C26 21.6761 25.8857 21.8406 25.6572 21.9902C25.4287 22.1398 25.0775 22.2633 24.6035 22.3605C24.1296 22.4577 23.6429 22.5475 23.1436 22.6298C22.6442 22.712 22.0052 22.7756 21.2266 22.8205C20.4479 22.8654 19.7708 22.899 19.1953 22.9215C18.6198 22.9439 17.8792 22.9626 16.9736 22.9776C16.068 22.9925 15.3825 23 14.917 23H11.083L9.02637 22.9776L6.80469 22.9215L4.77344 22.8205L2.85645 22.6298L1.39648 22.3605L0.342773 21.9902L0 21.4966C0.0338542 20.1802 0.964844 19.0171 2.79297 18.0073C4.62109 16.9976 6.9401 16.3281 9.75 15.999V15.2585C8.86979 14.9145 8.10807 14.4283 7.46484 13.8C6.82161 13.1717 6.3138 12.435 5.94141 11.5898C5.56901 10.7446 5.29818 9.83951 5.12891 8.87463C4.95964 7.90976 4.875 6.86634 4.875 5.74439C4.875 4.78699 5.08659 3.93431 5.50977 3.18634C5.93294 2.43837 6.51693 1.83626 7.26172 1.38C8.00651 0.92374 8.86133 0.579675 9.82617 0.347805C10.791 0.115935 11.849 0 13 0C14.151 0 15.209 0.115935 16.1738 0.347805C17.1387 0.579675 17.9935 0.92374 18.7383 1.38C19.4831 1.83626 20.0671 2.43837 20.4902 3.18634C20.9134 3.93431 21.125 4.78699 21.125 5.74439C21.125 10.9802 19.5 14.1665 16.25 15.3034V15.999C19.0599 16.3281 21.3789 16.9976 23.207 18.0073C25.0352 19.0171 25.9661 20.1802 26 21.4966Z" fill="#74C6A7"/>
</svg>
