<svg width="37" height="37" viewBox="0 0 37 37" fill="none" xmlns="http://www.w3.org/2000/svg">
<path d="M3.0835 14.6458V6.16667C3.0835 5.75779 3.24592 5.36566 3.53504 5.07654C3.82416 4.78743 4.21629 4.625 4.62516 4.625H32.3752C32.784 4.625 33.1762 4.78743 33.4653 5.07654C33.7544 5.36566 33.9168 5.75779 33.9168 6.16667V14.6458C32.8946 14.6458 31.9143 15.0519 31.1915 15.7747C30.4687 16.4975 30.0627 17.4778 30.0627 18.5C30.0627 19.5222 30.4687 20.5025 31.1915 21.2253C31.9143 21.9481 32.8946 22.3542 33.9168 22.3542V30.8333C33.9168 31.2422 33.7544 31.6343 33.4653 31.9235C33.1762 32.2126 32.784 32.375 32.3752 32.375H4.62516C4.21629 32.375 3.82416 32.2126 3.53504 31.9235C3.24592 31.6343 3.0835 31.2422 3.0835 30.8333V22.3542C4.10568 22.3542 5.08601 21.9481 5.8088 21.2253C6.5316 20.5025 6.93766 19.5222 6.93766 18.5C6.93766 17.4778 6.5316 16.4975 5.8088 15.7747C5.08601 15.0519 4.10568 14.6458 3.0835 14.6458ZM21.5835 7.70833H6.16683V12.284C7.32494 12.858 8.29968 13.744 8.98115 14.8423C9.66262 15.9406 10.0237 17.2075 10.0237 18.5C10.0237 19.7925 9.66262 21.0594 8.98115 22.1577C8.29968 23.256 7.32494 24.142 6.16683 24.716V29.2917H21.5835V7.70833ZM24.6668 7.70833V29.2917H30.8335V24.716C29.6754 24.142 28.7006 23.256 28.0192 22.1577C27.3377 21.0594 26.9766 19.7925 26.9766 18.5C26.9766 17.2075 27.3377 15.9406 28.0192 14.8423C28.7006 13.744 29.6754 12.858 30.8335 12.284V7.70833H24.6668Z" fill="#74C6A7"/>
</svg>
