<svg width="18" height="17" viewBox="0 0 18 17" fill="none" xmlns="http://www.w3.org/2000/svg">
<path d="M10.5806 1.11562C10.116 -0.371875 7.884 -0.371875 7.41937 1.11562L7.30687 1.47687C7.23745 1.69957 7.11613 1.90476 6.95182 2.07741C6.7875 2.25006 6.58434 2.38579 6.35726 2.47463C6.13017 2.56348 5.88491 2.60319 5.63945 2.59086C5.394 2.57853 5.15458 2.51447 4.93875 2.40338L4.59 2.22275C3.14663 1.48112 1.56825 2.97181 2.35462 4.33394L2.54475 4.66437C3.0465 5.53562 2.57063 6.62044 1.56375 6.90094L1.18125 7.00719C-0.39375 7.446 -0.39375 9.554 1.18125 9.99281L1.56375 10.0991C1.79954 10.1646 2.01681 10.2792 2.19961 10.4344C2.38242 10.5896 2.52613 10.7815 2.6202 10.9959C2.71427 11.2104 2.75632 11.442 2.74326 11.6739C2.73021 11.9057 2.66238 12.1318 2.54475 12.3356L2.3535 12.665C1.56825 14.0282 3.14663 15.5189 4.58887 14.7762L4.93875 14.5966C5.15458 14.4855 5.394 14.4215 5.63945 14.4091C5.88491 14.3968 6.13017 14.4365 6.35726 14.5254C6.58434 14.6142 6.7875 14.7499 6.95182 14.9226C7.11613 15.0952 7.23745 15.3004 7.30687 15.5231L7.41937 15.8844C7.884 17.3719 10.116 17.3719 10.5806 15.8844L10.6931 15.5231C10.7625 15.3004 10.8839 15.0952 11.0482 14.9226C11.2125 14.7499 11.4157 14.6142 11.6427 14.5254C11.8698 14.4365 12.1151 14.3968 12.3605 14.4091C12.606 14.4215 12.8454 14.4855 13.0612 14.5966L13.41 14.7773C14.8534 15.5189 16.4317 14.0282 15.6454 12.6661L15.4552 12.3356C15.3376 12.1318 15.2698 11.9057 15.2567 11.6739C15.2437 11.442 15.2857 11.2104 15.3798 10.9959C15.4739 10.7815 15.6176 10.5896 15.8004 10.4344C15.9832 10.2792 16.2005 10.1646 16.4362 10.0991L16.8188 9.99281C18.3937 9.554 18.3937 7.446 16.8188 7.00719L16.4362 6.90094C16.2005 6.83537 15.9832 6.72079 15.8004 6.5656C15.6176 6.41041 15.4739 6.21855 15.3798 6.00408C15.2857 5.7896 15.2437 5.55797 15.2567 5.32615C15.2698 5.09433 15.3376 4.86821 15.4552 4.66437L15.6465 4.335C16.4317 2.97181 14.8534 1.48112 13.4111 2.22381L13.0612 2.40338C12.8454 2.51447 12.606 2.57853 12.3605 2.59086C12.1151 2.60319 11.8698 2.56348 11.6427 2.47463C11.4157 2.38579 11.2125 2.25006 11.0482 2.07741C10.8839 1.90476 10.7625 1.69957 10.6931 1.47687L10.5806 1.11562ZM9 11.6131C8.12578 11.6131 7.28737 11.2851 6.6692 10.7013C6.05103 10.1175 5.70375 9.32565 5.70375 8.5C5.70375 7.67435 6.05103 6.88251 6.6692 6.29869C7.28737 5.71486 8.12578 5.38688 9 5.38688C9.87392 5.38688 10.712 5.71475 11.33 6.29838C11.948 6.882 12.2951 7.67357 12.2951 8.49894C12.2951 9.32431 11.948 10.1159 11.33 10.6995C10.712 11.2831 9.87392 11.611 9 11.611V11.6131Z" fill="#74C6A7"/>
</svg>
